<svg width="176" height="40" viewBox="0 0 176 40" fill="none" xmlns="http://www.w3.org/2000/svg">
<path d="M16.6456 2.34758H21.4651V30H16.6456V17.5959H5.18963V30H0.370207V2.34758H5.18963V12.7765H16.6456V2.34758ZM38.4167 10.2483H43.5324L32.7282 39.8759H27.6125L31.1875 30L24.0769 10.2483H29.3506L33.5972 23.4029L38.4167 10.2483ZM60.4383 0.372411H65.2577V30H60.4383V27.531C59.8062 28.4133 59.0096 29.1309 58.0483 29.684C57.0871 30.237 55.9744 30.5135 54.7103 30.5135C53.275 30.5135 51.9319 30.2436 50.6809 29.7037C49.43 29.1638 48.3239 28.4199 47.3626 27.4718C46.4146 26.5105 45.6706 25.4044 45.1307 24.1535C44.5908 22.9025 44.3209 21.5594 44.3209 20.1241C44.3209 18.6888 44.5908 17.3457 45.1307 16.0948C45.6706 14.8438 46.4146 13.7443 47.3626 12.7962C48.3239 11.835 49.43 11.0844 50.6809 10.5446C51.9319 10.0047 53.275 9.73473 54.7103 9.73473C55.9744 9.73473 57.0871 10.0113 58.0483 10.5643C59.0096 11.1042 59.8062 11.8218 60.4383 12.7172V0.372411ZM54.7695 25.8719C55.7966 25.8719 56.7052 25.6151 57.4953 25.1016C58.2854 24.588 58.9042 23.8967 59.3519 23.0276C59.7996 22.1454 60.0235 21.1776 60.0235 20.1241C60.0235 19.0575 59.7996 18.0897 59.3519 17.2206C58.9042 16.3384 58.2788 15.6405 57.4755 15.127C56.6855 14.6134 55.7835 14.3566 54.7695 14.3566C53.7556 14.3566 52.8273 14.62 51.9845 15.1467C51.155 15.6602 50.49 16.3516 49.9896 17.2206C49.5024 18.0897 49.2588 19.0575 49.2588 20.1241C49.2588 21.1907 49.509 22.1586 50.0094 23.0276C50.5098 23.8967 51.1747 24.588 52.0043 25.1016C52.847 25.6151 53.7688 25.8719 54.7695 25.8719ZM70.0225 30L70.0028 10.2483H74.8222L74.8419 12.0062C75.5135 11.2951 76.3167 10.7355 77.2516 10.3273C78.1866 9.90591 79.1939 9.69523 80.2736 9.69523C80.9979 9.69523 81.7221 9.80057 82.4463 10.0113L80.5502 14.8702C80.0498 14.6727 79.5494 14.5739 79.049 14.5739C78.2721 14.5739 77.5611 14.7648 76.9159 15.1467C76.2838 15.5154 75.7768 16.0224 75.395 16.6676C75.0263 17.2996 74.8419 18.0041 74.8419 18.781V30H70.0225ZM92.4271 30.5135C90.61 30.5135 88.9508 30.0461 87.4497 29.1112C85.9617 28.1763 84.77 26.9253 83.8746 25.3583C82.9924 23.7782 82.5513 22.0335 82.5513 20.1241C82.5513 18.6757 82.808 17.326 83.3216 16.075C83.8351 14.8109 84.5396 13.7048 85.435 12.7567C86.3436 11.7955 87.397 11.0449 88.5953 10.505C89.7936 9.96517 91.0708 9.69523 92.4271 9.69523C94.2443 9.69523 95.8969 10.1627 97.3848 11.0976C98.8859 12.0325 100.078 13.29 100.96 14.8702C101.855 16.4503 102.303 18.2016 102.303 20.1241C102.303 21.5594 102.046 22.9025 101.533 24.1535C101.019 25.4044 100.308 26.5105 99.3995 27.4718C98.5041 28.4199 97.4572 29.1638 96.259 29.7037C95.0739 30.2436 93.7966 30.5135 92.4271 30.5135ZM92.4271 25.6941C93.3884 25.6941 94.2509 25.4374 95.0146 24.9238C95.7783 24.4103 96.3775 23.7321 96.812 22.8894C97.2597 22.0466 97.4836 21.1249 97.4836 20.1241C97.4836 19.097 97.2531 18.1621 96.7923 17.3194C96.3446 16.4635 95.7323 15.7853 94.9554 15.285C94.1916 14.7714 93.3489 14.5146 92.4271 14.5146C91.479 14.5146 90.6231 14.7714 89.8594 15.285C89.0957 15.7985 88.49 16.4832 88.0422 17.3391C87.5945 18.1951 87.3707 19.1234 87.3707 20.1241C87.3707 21.1644 87.6011 22.1059 88.062 22.9486C88.5229 23.7914 89.1352 24.4629 89.8989 24.9633C90.6758 25.4505 91.5186 25.6941 92.4271 25.6941Z" fill="#27CFA0"/>
<path d="M103.906 30L107.777 2.34758H124.112L123.44 7.16701H111.925L111.135 12.7765H120.754L120.082 17.5959H110.463L108.725 30H103.906ZM139.194 10.2483H144.013L141.248 30H136.428L136.547 27.5508C135.875 28.433 135.059 29.1507 134.098 29.7037C133.136 30.2436 132.05 30.5135 130.839 30.5135C129.377 30.5135 128.047 30.237 126.849 29.684C125.651 29.1309 124.63 28.3672 123.787 27.3928C122.958 26.4184 122.359 25.2925 121.99 24.0152C121.634 22.7379 121.562 21.3685 121.773 19.9069C121.97 18.4979 122.411 17.1745 123.096 15.9368C123.794 14.699 124.67 13.6127 125.723 12.6777C126.79 11.7428 127.975 11.012 129.278 10.4853C130.582 9.95858 131.938 9.69523 133.347 9.69523C134.651 9.69523 135.777 9.98492 136.725 10.5643C137.686 11.1437 138.469 11.8811 139.075 12.7765L139.194 10.2483ZM131.372 25.8719C132.386 25.8719 133.327 25.6151 134.196 25.1016C135.066 24.588 135.783 23.8967 136.349 23.0276C136.929 22.1454 137.291 21.1776 137.436 20.1241C137.581 19.0575 137.488 18.0897 137.159 17.2206C136.83 16.3384 136.303 15.6405 135.579 15.127C134.868 14.6134 134.006 14.3566 132.992 14.3566C131.965 14.3566 130.997 14.62 130.088 15.1467C129.18 15.6602 128.416 16.3516 127.797 17.2206C127.191 18.0897 126.816 19.0575 126.671 20.1241C126.526 21.1907 126.638 22.1586 127.007 23.0276C127.389 23.8967 127.962 24.588 128.725 25.1016C129.489 25.6151 130.371 25.8719 131.372 25.8719ZM150.951 30.3555C149.937 30.2897 148.976 30.0856 148.067 29.7432C147.159 29.3877 146.375 28.9071 145.717 28.3014C145.072 27.6956 144.611 26.9714 144.334 26.1287L148.66 24.3905C148.778 24.6539 148.989 24.937 149.292 25.2398C149.608 25.5295 149.997 25.7731 150.457 25.9706C150.931 26.1682 151.465 26.2669 152.057 26.2669C152.558 26.2669 153.045 26.2011 153.519 26.0694C153.993 25.9246 154.395 25.7073 154.724 25.4176C155.053 25.1279 155.25 24.7526 155.316 24.2918C155.382 23.8045 155.257 23.4293 154.941 23.1659C154.638 22.8894 154.25 22.6853 153.776 22.5536C153.302 22.4088 152.828 22.2771 152.354 22.1586C151.142 21.9084 150.036 21.5199 149.035 20.9932C148.048 20.4665 147.284 19.7884 146.744 18.9588C146.204 18.116 146.02 17.1021 146.191 15.917C146.375 14.6134 146.876 13.4876 147.692 12.5395C148.509 11.5914 149.509 10.8606 150.694 10.347C151.893 9.83349 153.137 9.57672 154.427 9.57672C155.994 9.57672 157.384 9.90591 158.595 10.5643C159.82 11.2095 160.728 12.1247 161.321 13.3098L157.193 15.5615C157.048 15.2455 156.831 14.9558 156.541 14.6924C156.251 14.4159 155.909 14.192 155.514 14.0209C155.119 13.8365 154.697 13.7312 154.25 13.7048C153.657 13.6785 153.104 13.7312 152.591 13.8628C152.09 13.9945 151.669 14.2184 151.326 14.5344C150.997 14.8504 150.793 15.2718 150.714 15.7985C150.648 16.2989 150.793 16.6742 151.149 16.9244C151.504 17.1614 151.952 17.3457 152.492 17.4774C153.032 17.6091 153.552 17.7539 154.052 17.9119C155.158 18.2938 156.179 18.7613 157.114 19.3143C158.049 19.8674 158.773 20.5455 159.286 21.3487C159.8 22.152 159.965 23.1132 159.78 24.2325C159.596 25.5098 159.056 26.629 158.161 27.5903C157.265 28.5384 156.179 29.2626 154.902 29.763C153.624 30.2634 152.307 30.4609 150.951 30.3555ZM175.031 15.0677H171.199L169.106 30H164.286L166.38 15.0677H163.457L164.128 10.2483H167.052L167.921 4.04623H172.74L171.871 10.2483H175.703L175.031 15.0677Z" fill="#0D6457"/>
</svg>
