<svg width="40" height="40" viewBox="0 0 40 40" fill="none" xmlns="http://www.w3.org/2000/svg">
<rect width="40" height="40" rx="6" fill="#27CF9F"/>
<path d="M20.0005 18.019L19.9997 24.5M19.9997 24.5C20.3733 24.505 20.7418 24.2482 21.0137 23.9348L22.8346 21.8927M19.9997 24.5C19.6394 24.4952 19.2743 24.2398 18.9858 23.9348L17.1543 21.8927" stroke="white" stroke-width="1.71836" stroke-linecap="round"/>
<path d="M23.4325 10.5726L23.4325 13.7229C23.4325 14.803 23.4325 15.343 23.768 15.6785C24.1035 16.0141 24.6436 16.0141 25.7236 16.0141L28.0612 16.0141" stroke="white" stroke-width="1.71836"/>
<path d="M14.291 10.8594H23.9482C24.4269 10.8595 24.8741 11.0988 25.1396 11.4971L27.5107 15.0547C27.6675 15.2899 27.7519 15.566 27.752 15.8486V27.209C27.7519 27.9998 27.1101 28.6406 26.3193 28.6406H14.291C13.5003 28.6406 12.8594 27.9997 12.8594 27.209V12.291C12.8594 11.5003 13.5003 10.8594 14.291 10.8594Z" stroke="white" stroke-width="1.71836"/>
</svg>
